<svg width="150" height="150" xmlns="http://www.w3.org/2000/svg">

 <g>
  <title>Layer 1</title>
  <g id="surface1">
   <path id="svg_1" fill-rule="nonzero" fill="#ff9900" d="m150,18.75c0,-10.35547 -8.39453,-18.75 -18.75,-18.75l-112.5,0c-10.35547,0 -18.75,8.39453 -18.75,18.75l0,75c0,10.35547 8.39453,18.75 18.75,18.75l89.86719,0c2.48828,0 4.87109,0.98828 6.6289,2.74609l26.7461,26.7461c1.33984,1.34375 3.35937,1.74609 5.10937,1.02344c1.75391,-0.72657 2.89844,-2.4336 2.89844,-4.33204l0,-119.93359zm-117.1875,9.375l84.375,0c2.58984,0 4.6875,2.09766 4.6875,4.6875c0,2.58984 -2.09766,4.6875 -4.6875,4.6875l-84.375,0c-2.58984,0 -4.6875,-2.09766 -4.6875,-4.6875c0,-2.58984 2.09766,-4.6875 4.6875,-4.6875zm0,23.4375l84.375,0c2.58984,0 4.6875,2.09766 4.6875,4.6875c0,2.58984 -2.09766,4.6875 -4.6875,4.6875l-84.375,0c-2.58984,0 -4.6875,-2.09766 -4.6875,-4.6875c0,-2.58984 2.09766,-4.6875 4.6875,-4.6875zm0,23.4375l46.875,0c2.58984,0 4.6875,2.09766 4.6875,4.6875c0,2.58984 -2.09766,4.6875 -4.6875,4.6875l-46.875,0c-2.58984,0 -4.6875,-2.09766 -4.6875,-4.6875c0,-2.58984 2.09766,-4.6875 4.6875,-4.6875zm0,0"/>
  </g>
 </g>
</svg>