<svg width="150" height="150" xmlns="http://www.w3.org/2000/svg">

 <g>
  <title>Layer 1</title>
  <g id="surface1">
   <path id="svg_1" fill-rule="nonzero" fill="#ff9900" d="m88.17188,9.84375c-3.8711,-13.125 -22.47266,-13.125 -26.34375,0l-0.9375,3.1875c-1.17188,3.98047 -4.08204,7.21484 -7.91407,8.80469c-3.83203,1.58594 -8.17578,1.35547 -11.82031,-0.62891l-2.90625,-1.59375c-12.02734,-6.54297 -25.17969,6.60938 -18.62891,18.62891l1.58594,2.91406c4.17969,7.6875 0.21485,17.25781 -8.17578,19.73438l-3.1875,0.9375c-13.125,3.87109 -13.125,22.47265 0,26.34375l3.1875,0.9375c3.98047,1.17187 7.21484,4.08203 8.80469,7.91406c1.58594,3.83203 1.35547,8.17578 -0.62891,11.82031l-1.59375,2.90625c-6.54297,12.02734 6.60938,25.17969 18.62891,18.62891l2.91406,-1.58594c3.64453,-1.98438 7.98828,-2.21484 11.82031,-0.62891c3.83203,1.58985 6.74219,4.82422 7.91407,8.80469l0.9375,3.1875c3.87109,13.125 22.47265,13.125 26.34375,0l0.9375,-3.1875c1.17187,-3.98047 4.08203,-7.21484 7.91406,-8.80469c3.83203,-1.58593 8.17578,-1.35547 11.82031,0.62891l2.90625,1.59375c12.02734,6.54297 25.17969,-6.60938 18.62891,-18.62891l-1.58594,-2.91406c-1.98438,-3.64453 -2.21484,-7.98828 -0.62891,-11.82031c1.58985,-3.83203 4.82422,-6.74219 8.80469,-7.91406l3.1875,-0.9375c13.125,-3.8711 13.125,-22.47266 0,-26.34375l-3.1875,-0.9375c-3.98047,-1.17188 -7.21484,-4.08204 -8.80469,-7.91407c-1.58593,-3.83203 -1.35547,-8.17578 0.62891,-11.82031l1.59375,-2.90625c6.54297,-12.02734 -6.60938,-25.17969 -18.62891,-18.62891l-2.91406,1.58594c-3.64453,1.98438 -7.98828,2.21485 -11.82031,0.62891c-3.83203,-1.58985 -6.74219,-4.82422 -7.91406,-8.80469l-0.9375,-3.1875zm-13.17188,92.625c-15.17187,0 -27.46875,-12.29687 -27.46875,-27.46875c0,-15.17187 12.29688,-27.46875 27.46875,-27.46875c15.16406,0 27.46094,12.29297 27.46094,27.46094c0,15.16406 -12.29688,27.45703 -27.46094,27.45703l0,0.01953zm0,0"/>
  </g>
 </g>
</svg>