<svg width="150" height="150" xmlns="http://www.w3.org/2000/svg">

 <g>
  <title>Layer 1</title>
  <g id="surface1">
   <path id="svg_1" fill-rule="nonzero" fill="#ff9900" d="m32.8125,107.8125c-16.25781,-0.00391 -30.05859,-11.91016 -32.44922,-27.98828c-2.39062,-16.08203 7.35547,-31.48828 22.91016,-36.21875c15.55469,-4.72656 32.22656,2.64453 39.1914,17.33203l68.78516,0l14.0625,14.0625l-14.0625,14.0625l-9.375,-9.375l-9.375,9.375l-9.375,-9.375l-9.375,9.375l-9.375,-9.375l-9.375,9.375l-12.53516,0c-5.43359,11.45313 -16.97656,18.75391 -29.65234,18.75zm-9.375,-23.4375c5.17578,0 9.375,-4.19922 9.375,-9.375c0,-5.17578 -4.19922,-9.375 -9.375,-9.375c-5.17578,0 -9.375,4.19922 -9.375,9.375c0,5.17578 4.19922,9.375 9.375,9.375zm0,0"/>
  </g>
 </g>
</svg>