<svg width="150" height="150" xmlns="http://www.w3.org/2000/svg">

 <g>
  <title>Layer 1</title>
  <g id="surface1">
   <path id="svg_1" fill-rule="nonzero" fill="#ff9900" d="m126.01953,23.98047c2.28906,2.28906 2.28906,6 0,8.28906l-93.75,93.75c-2.28906,2.28906 -6,2.28906 -8.28906,0c-2.28906,-2.28906 -2.28906,-6 0,-8.28906l93.75,-93.75c2.28906,-2.28906 6,-2.28906 8.28906,0zm-83.83203,32.26953c-7.76562,0 -14.0625,-6.29687 -14.0625,-14.0625c0,-7.76562 6.29688,-14.0625 14.0625,-14.0625c7.76563,0 14.0625,6.29688 14.0625,14.0625c0,7.76563 -6.29687,14.0625 -14.0625,14.0625zm0,9.375c12.94531,0 23.4375,-10.49219 23.4375,-23.4375c0,-12.94531 -10.49219,-23.4375 -23.4375,-23.4375c-12.94531,0 -23.4375,10.49219 -23.4375,23.4375c0,12.94531 10.49219,23.4375 23.4375,23.4375zm65.625,56.25c-7.76562,0 -14.0625,-6.29687 -14.0625,-14.0625c0,-7.76562 6.29688,-14.0625 14.0625,-14.0625c7.76563,0 14.0625,6.29688 14.0625,14.0625c0,7.76563 -6.29687,14.0625 -14.0625,14.0625zm0,9.375c12.94531,0 23.4375,-10.49219 23.4375,-23.4375c0,-12.94531 -10.49219,-23.4375 -23.4375,-23.4375c-12.94531,0 -23.4375,10.49219 -23.4375,23.4375c0,12.94531 10.49219,23.4375 23.4375,23.4375zm0,0"/>
  </g>
 </g>
</svg>