<?xml version="1.0" encoding="UTF-8"?>
<svg xmlns="http://www.w3.org/2000/svg" xmlns:xlink="http://www.w3.org/1999/xlink" width="200pt" height="200pt" viewBox="0 0 200 200" version="1.1">
<g id="surface1">
<path style=" stroke:none;fill-rule:evenodd;fill:rgb(0%,0%,0%);fill-opacity:1;" d="M 12.15625 97.351562 C 12.15625 144.429688 50.308594 182.550781 97.351562 182.550781 C 144.429688 182.550781 182.550781 144.429688 182.550781 97.351562 C 182.550781 50.308594 144.429688 12.15625 97.351562 12.15625 C 50.308594 12.15625 12.15625 50.308594 12.15625 97.351562 Z M 194.738281 97.351562 C 194.738281 151.132812 151.132812 194.738281 97.351562 194.738281 C 43.609375 194.738281 0 151.132812 0 97.351562 C 0 43.609375 43.609375 0 97.351562 0 C 151.132812 0 194.738281 43.609375 194.738281 97.351562 Z M 103.449219 54.753906 C 103.449219 51.421875 100.71875 48.695312 97.351562 48.695312 C 94.019531 48.695312 91.292969 51.421875 91.292969 54.753906 L 91.292969 125.269531 L 65.160156 99.136719 C 62.804688 96.78125 58.929688 96.78125 56.539062 99.136719 C 54.183594 101.527344 54.183594 105.402344 56.539062 107.757812 L 93.042969 144.296875 C 94.1875 145.441406 95.738281 146.046875 97.351562 146.046875 C 99.003906 146.046875 100.550781 145.441406 101.695312 144.296875 L 138.199219 107.757812 C 140.558594 105.402344 140.558594 101.527344 138.199219 99.136719 C 135.808594 96.78125 131.9375 96.78125 129.546875 99.136719 L 103.449219 125.269531 Z M 103.449219 54.753906 "/>
</g>
</svg>
