<?xml version="1.0" encoding="UTF-8"?>
<svg xmlns="http://www.w3.org/2000/svg" xmlns:xlink="http://www.w3.org/1999/xlink" width="200pt" height="200pt" viewBox="0 0 200 200" version="1.1">
<g id="surface1">
<path style=" stroke:none;fill-rule:evenodd;fill:rgb(0%,0%,0%);fill-opacity:1;" d="M 12.15625 97.351562 C 12.15625 144.429688 50.308594 182.550781 97.351562 182.550781 C 144.429688 182.550781 182.550781 144.429688 182.550781 97.351562 C 182.550781 50.308594 144.429688 12.15625 97.351562 12.15625 C 50.308594 12.15625 12.15625 50.308594 12.15625 97.351562 Z M 194.738281 97.351562 C 194.738281 151.132812 151.132812 194.738281 97.351562 194.738281 C 43.609375 194.738281 0 151.132812 0 97.351562 C 0 43.609375 43.609375 0 97.351562 0 C 151.132812 0 194.738281 43.609375 194.738281 97.351562 Z M 103.449219 139.953125 C 103.449219 143.320312 100.71875 146.046875 97.351562 146.046875 C 94.019531 146.046875 91.292969 143.320312 91.292969 139.953125 L 91.292969 69.46875 L 65.160156 95.601562 C 62.804688 97.960938 58.929688 97.960938 56.539062 95.601562 C 54.183594 93.210938 54.183594 89.339844 56.539062 86.949219 L 93.042969 50.445312 C 94.1875 49.300781 95.738281 48.695312 97.351562 48.695312 C 99.003906 48.695312 100.550781 49.300781 101.695312 50.445312 L 138.199219 86.949219 C 140.558594 89.339844 140.558594 93.210938 138.199219 95.601562 C 135.808594 97.960938 131.9375 97.960938 129.546875 95.601562 L 103.449219 69.46875 Z M 103.449219 139.953125 "/>
</g>
</svg>
