<?xml version="1.0" encoding="UTF-8"?>
<svg xmlns="http://www.w3.org/2000/svg" xmlns:xlink="http://www.w3.org/1999/xlink" width="100pt" height="100pt" viewBox="0 0 100 100" version="1.1">
<g id="surface1">
<path style=" stroke:none;fill-rule:nonzero;fill:rgb(94.901961%,37.647059%,39.607843%);fill-opacity:1;" d="M 43.476562 90.835938 C 43.882812 96.6875 49.425781 101.207031 55.398438 99.710938 L 57.03125 99.304688 C 60.078125 98.59375 62.5 96.285156 63.355469 93.273438 C 64.730469 88.175781 66.6875 77.574219 63.742188 65.085938 C 64.59375 65.210938 65.523438 65.320312 66.511719 65.40625 C 70.96875 65.8125 76.945312 65.851562 82.238281 64.085938 C 85.476562 63.007812 88.449219 59.835938 89.738281 56.136719 C 91.046875 52.503906 90.5 48.457031 88.273438 45.300781 C 88.636719 44.5625 88.917969 43.789062 89.136719 43.039062 C 89.617188 41.351562 89.84375 39.488281 89.84375 37.6875 C 89.84375 35.875 89.617188 34.023438 89.136719 32.332031 C 88.890625 31.460938 88.558594 30.613281 88.136719 29.8125 C 89.195312 27.394531 88.804688 24.6875 88.117188 22.632812 C 87.414062 20.601562 86.382812 18.703125 85.070312 17.007812 C 85.40625 16.050781 85.542969 15.050781 85.542969 14.101562 C 85.515625 12.09375 84.972656 10.132812 83.960938 8.398438 C 81.875 4.730469 77.730469 1.75 71.875 1.75 L 50 1.75 C 46.21875 1.75 43.3125 2.25 40.835938 3.105469 C 38.710938 3.886719 36.675781 4.902344 34.773438 6.136719 L 34.476562 6.320312 C 31.324219 8.242188 28.230469 10.132812 21.550781 10.835938 C 16.761719 11.34375 12.5 15.210938 12.5 20.492188 L 12.5 45.492188 C 12.5 50.8125 16.78125 54.449219 20.980469 55.59375 C 26.289062 57.042969 30.820312 60.511719 34.304688 64.40625 C 37.804688 68.320312 40.019531 72.40625 40.800781 74.644531 C 42.042969 78.238281 43.023438 84.269531 43.476562 90.835938 Z M 43.476562 90.835938 "/>
</g>
</svg>
