<?xml version="1.0" encoding="UTF-8"?>
<svg xmlns="http://www.w3.org/2000/svg" xmlns:xlink="http://www.w3.org/1999/xlink" width="100pt" height="100pt" viewBox="0 0 100 100" version="1.1">
<g id="surface1">
<path style=" stroke:none;fill-rule:nonzero;fill:rgb(19.607843%,71.764706%,42.352941%);fill-opacity:1;" d="M 47.785156 10.90625 C 48.191406 5.0625 53.734375 0.542969 59.710938 2.03125 L 61.339844 2.445312 C 64.234375 3.167969 66.804688 5.292969 67.667969 8.476562 C 69.042969 13.574219 70.996094 24.167969 68.054688 36.664062 C 68.972656 36.535156 69.898438 36.429688 70.824219 36.34375 C 75.277344 35.9375 81.253906 35.894531 86.546875 37.65625 C 89.785156 38.738281 92.761719 41.914062 94.046875 45.613281 C 95.199219 48.9375 95.046875 52.875 92.585938 56.445312 C 92.949219 57.1875 93.230469 57.957031 93.449219 58.710938 C 93.929688 60.398438 94.152344 62.257812 94.152344 64.0625 C 94.152344 65.867188 93.929688 67.726562 93.449219 69.414062 C 93.203125 70.257812 92.886719 71.117188 92.449219 71.9375 C 93.503906 74.355469 93.117188 77.054688 92.429688 79.113281 C 91.726562 81.144531 90.695312 83.042969 89.378906 84.742188 C 89.714844 85.695312 89.855469 86.695312 89.855469 87.648438 C 89.855469 89.554688 89.296875 91.554688 88.273438 93.351562 C 86.183594 97.011719 82.042969 100 76.183594 100 L 54.308594 100 C 50.527344 100 47.621094 99.492188 45.148438 98.636719 C 43.019531 97.859375 40.984375 96.84375 39.085938 95.613281 L 38.785156 95.425781 C 35.636719 93.507812 32.542969 91.617188 25.859375 90.914062 C 21.074219 90.398438 16.808594 86.539062 16.808594 81.25 L 16.808594 56.25 C 16.808594 50.9375 21.089844 47.300781 25.292969 46.15625 C 30.597656 44.707031 35.128906 41.238281 38.617188 37.34375 C 42.117188 33.425781 44.328125 29.34375 45.109375 27.101562 C 46.355469 23.507812 47.335938 17.480469 47.785156 10.914062 Z M 47.785156 10.90625 "/>
</g>
</svg>
