<?xml version="1.0" encoding="UTF-8"?>
<svg xmlns="http://www.w3.org/2000/svg" xmlns:xlink="http://www.w3.org/1999/xlink" width="100pt" height="100pt" viewBox="0 0 100 100" version="1.1">
<g id="surface1">
<path style=" stroke:none;fill-rule:nonzero;fill:rgb(100%,60%,0%);fill-opacity:1;" d="M 28.125 18.75 C 28.125 10.121094 35.121094 3.125 43.75 3.125 C 52.378906 3.125 59.375 10.121094 59.375 18.75 L 59.375 75 C 59.375 80.175781 55.175781 84.375 50 84.375 C 44.824219 84.375 40.625 80.175781 40.625 75 L 40.625 31.25 C 40.625 29.523438 42.023438 28.125 43.75 28.125 C 45.476562 28.125 46.875 29.523438 46.875 31.25 L 46.875 75 C 46.875 76.726562 48.273438 78.125 50 78.125 C 51.726562 78.125 53.125 76.726562 53.125 75 L 53.125 18.75 C 53.125 13.574219 48.925781 9.375 43.75 9.375 C 38.574219 9.375 34.375 13.574219 34.375 18.75 L 34.375 75 C 34.375 83.628906 41.371094 90.625 50 90.625 C 58.628906 90.625 65.625 83.628906 65.625 75 L 65.625 31.25 C 65.625 29.523438 67.023438 28.125 68.75 28.125 C 70.476562 28.125 71.875 29.523438 71.875 31.25 L 71.875 75 C 71.875 87.082031 62.082031 96.875 50 96.875 C 37.917969 96.875 28.125 87.082031 28.125 75 Z M 28.125 18.75 "/>
</g>
</svg>
